<?xml version="1.0" encoding="UTF-8"?>
<svg width="115px" height="166px" viewBox="0 0 115 166" version="1.1" xmlns="http://www.w3.org/2000/svg" xmlns:xlink="http://www.w3.org/1999/xlink">
    <!-- Generator: Sketch 52.6 (67491) - http://www.bohemiancoding.com/sketch -->
    <title>columns</title>
    <desc>Created with Sketch.</desc>
    <g id="columns" stroke="none" stroke-width="1" fill="none" fill-rule="evenodd">
        <path d="M58,127.06105 L58,166 L57,166 L57,98.0610501 L38.5,108 L20,98.0610501 L20,166 L19,166 L19,50 L20,50 L20,96.9328449 L38,86.2954823 L38,40.0610501 L19.5,50 L1,40.0610501 L1,166 L0,166 L0,40 L0.886363636,40 L0,39.5238095 L19.5,28 L38,38.9328449 L38,12 L38.8863636,12 L38,11.5238095 L57.5,0 L77,11.5238095 L76.1136364,12 L77,12 L77,67.9328449 L95.5,57 L115,68.5238095 L114.113636,69 L115,69 L115,166 L114,166 L114,69.0610501 L95.5,79 L77,69.0610501 L77,115.295482 L95,125.932845 L95,79 L96,79 L96,166 L95,166 L95,127.06105 L76.5,137 L58,127.06105 Z M58,125.932845 L76,115.295482 L76,12.0610501 L57.5,22 L39,12.0610501 L39,86.2954823 L57,96.9328449 L57,22 L58,22 L58,125.932845 Z M19.5,48.8709594 L36.9750347,39.4826624 L19.5,29.1555357 L2.02496533,39.4826624 L19.5,48.8709594 Z M95.5,77.8709594 L112.975035,68.4826624 L95.5,58.1555357 L78.0249653,68.4826624 L95.5,77.8709594 Z M76.5,135.870959 L93.9750347,126.482662 L76.5,116.155536 L59.0249653,126.482662 L76.5,135.870959 Z M57.5,20.8709594 L74.9750347,11.4826624 L57.5,1.15553567 L40.0249653,11.4826624 L57.5,20.8709594 Z M38.5,106.870959 L55.9750347,97.4826624 L38.5,87.1555357 L21.0249653,97.4826624 L38.5,106.870959 Z M38,108 L39,108 L39,166 L38,166 L38,108 Z M76,137 L77,137 L77,166 L76,166 L76,137 Z" id="Combined-Shape" fill="#FFFFFF" fill-rule="nonzero" transform="translate(57.500000, 83.000000) scale(-1, 1) translate(-57.500000, -83.000000) "></path>
    </g>
</svg>